<svg class="main-svg" xmlns="http://www.w3.org/2000/svg" xmlns:xlink="http://www.w3.org/1999/xlink" width="1200" height="600" style="" viewBox="0 0 1200 600"><rect x="0" y="0" width="1200" height="600" style="fill: rgb(255, 250, 229); fill-opacity: 1;"/><defs id="defs-b7b909"><g class="clips"><clipPath id="clipb7b909xyplot" class="plotclip"><rect width="985" height="458"/></clipPath><clipPath class="axesclip" id="clipb7b909x"><rect x="80" y="0" width="985" height="600"/></clipPath><clipPath class="axesclip" id="clipb7b909y"><rect x="0" y="60" width="1200" height="458"/></clipPath><clipPath class="axesclip" id="clipb7b909xy"><rect x="80" y="60" width="985" height="458"/></clipPath></g><g class="gradients"><linearGradient x1="0" x2="0" y1="1" y2="0" id="gb7b909-cbcoloraxis"><stop offset="0%" stop-color="rgb(0, 0, 255)" stop-opacity="1"/><stop offset="100%" stop-color="rgb(255, 156, 0)" stop-opacity="1"/></linearGradient></g><g class="patterns"/></defs><g class="bglayer"/><g class="layer-below"><g class="imagelayer"/><g class="shapelayer"/></g><g class="cartesianlayer"><g class="subplot xy"><g class="layer-subplot"><g class="shapelayer"/><g class="imagelayer"/></g><g class="minor-gridlayer"><g class="x"/><g class="y"/></g><g class="gridlayer"><g class="x"/><g class="y"/></g><g class="zerolinelayer"/><path class="xlines-below"/><path class="ylines-below"/><g class="overlines-below"/><g class="xaxislayer-below"/><g class="yaxislayer-below"/><g class="overaxes-below"/><g class="plot" transform="translate(80,60)" clip-path="url(#clipb7b909xyplot)"><g class="scatterlayer mlayer"><g class="trace scatter tracec167f9" style="stroke-miterlimit: 2; opacity: 1;"><g class="fills"/><g class="errorbars"/><g class="lines"/><g class="points"><path class="point" transform="translate(105.36,425.73)" d="M7.5,0A7.5,7.5 0 1,1 0,-7.5A7.5,7.5 0 0,1 7.5,0Z" style="opacity: 1; stroke-width: 0px; fill: rgb(0, 0, 255); fill-opacity: 1;"/><path class="point" transform="translate(193.18,367.09)" d="M7.5,0A7.5,7.5 0 1,1 0,-7.5A7.5,7.5 0 0,1 7.5,0Z" style="opacity: 1; stroke-width: 0px; fill: rgb(6, 4, 249); fill-opacity: 1;"/><path class="point" transform="translate(256.83,386.08)" d="M7.5,0A7.5,7.5 0 1,1 0,-7.5A7.5,7.5 0 0,1 7.5,0Z" style="opacity: 1; stroke-width: 0px; fill: rgb(12, 7, 243); fill-opacity: 1;"/><path class="point" transform="translate(79.57,418.44)" d="M7.5,0A7.5,7.5 0 1,1 0,-7.5A7.5,7.5 0 0,1 7.5,0Z" style="opacity: 1; stroke-width: 0px; fill: rgb(18, 11, 237); fill-opacity: 1;"/><path class="point" transform="translate(247.16,332.29)" d="M7.5,0A7.5,7.5 0 1,1 0,-7.5A7.5,7.5 0 0,1 7.5,0Z" style="opacity: 1; stroke-width: 0px; fill: rgb(24, 15, 231); fill-opacity: 1;"/><path class="point" transform="translate(97.3,425.1)" d="M7.5,0A7.5,7.5 0 1,1 0,-7.5A7.5,7.5 0 0,1 7.5,0Z" style="opacity: 1; stroke-width: 0px; fill: rgb(30, 19, 225); fill-opacity: 1;"/><path class="point" transform="translate(58.62,408.58)" d="M7.5,0A7.5,7.5 0 1,1 0,-7.5A7.5,7.5 0 0,1 7.5,0Z" style="opacity: 1; stroke-width: 0px; fill: rgb(36, 22, 219); fill-opacity: 1;"/><path class="point" transform="translate(119.86,408.74)" d="M7.5,0A7.5,7.5 0 1,1 0,-7.5A7.5,7.5 0 0,1 7.5,0Z" style="opacity: 1; stroke-width: 0px; fill: rgb(43, 26, 213); fill-opacity: 1;"/><path class="point" transform="translate(256.02,364.57)" d="M7.5,0A7.5,7.5 0 1,1 0,-7.5A7.5,7.5 0 0,1 7.5,0Z" style="opacity: 1; stroke-width: 0px; fill: rgb(49, 30, 206); fill-opacity: 1;"/><path class="point" transform="translate(322.09,250.21)" d="M7.5,0A7.5,7.5 0 1,1 0,-7.5A7.5,7.5 0 0,1 7.5,0Z" style="opacity: 1; stroke-width: 0px; fill: rgb(55, 33, 200); fill-opacity: 1;"/><path class="point" transform="translate(209.29,396.73)" d="M7.5,0A7.5,7.5 0 1,1 0,-7.5A7.5,7.5 0 0,1 7.5,0Z" style="opacity: 1; stroke-width: 0px; fill: rgb(61, 37, 194); fill-opacity: 1;"/><path class="point" transform="translate(378.49,284.43)" d="M7.5,0A7.5,7.5 0 1,1 0,-7.5A7.5,7.5 0 0,1 7.5,0Z" style="opacity: 1; stroke-width: 0px; fill: rgb(67, 41, 188); fill-opacity: 1;"/><path class="point" transform="translate(337.4,330.12)" d="M7.5,0A7.5,7.5 0 1,1 0,-7.5A7.5,7.5 0 0,1 7.5,0Z" style="opacity: 1; stroke-width: 0px; fill: rgb(73, 45, 182); fill-opacity: 1;"/><path class="point" transform="translate(159.34,334.47)" d="M7.5,0A7.5,7.5 0 1,1 0,-7.5A7.5,7.5 0 0,1 7.5,0Z" style="opacity: 1; stroke-width: 0px; fill: rgb(79, 48, 176); fill-opacity: 1;"/><path class="point" transform="translate(169.81,422.14)" d="M7.5,0A7.5,7.5 0 1,1 0,-7.5A7.5,7.5 0 0,1 7.5,0Z" style="opacity: 1; stroke-width: 0px; fill: rgb(85, 52, 170); fill-opacity: 1;"/><path class="point" transform="translate(250.38,219.64)" d="M7.5,0A7.5,7.5 0 1,1 0,-7.5A7.5,7.5 0 0,1 7.5,0Z" style="opacity: 1; stroke-width: 0px; fill: rgb(91, 56, 164); fill-opacity: 1;"/><path class="point" transform="translate(377.69,263.91)" d="M7.5,0A7.5,7.5 0 1,1 0,-7.5A7.5,7.5 0 0,1 7.5,0Z" style="opacity: 1; stroke-width: 0px; fill: rgb(97, 59, 158); fill-opacity: 1;"/><path class="point" transform="translate(265.69,343.8)" d="M7.5,0A7.5,7.5 0 1,1 0,-7.5A7.5,7.5 0 0,1 7.5,0Z" style="opacity: 1; stroke-width: 0px; fill: rgb(103, 63, 152); fill-opacity: 1;"/><path class="point" transform="translate(393.8,269.65)" d="M7.5,0A7.5,7.5 0 1,1 0,-7.5A7.5,7.5 0 0,1 7.5,0Z" style="opacity: 1; stroke-width: 0px; fill: rgb(109, 67, 146); fill-opacity: 1;"/><path class="point" transform="translate(532.38,265.52)" d="M7.5,0A7.5,7.5 0 1,1 0,-7.5A7.5,7.5 0 0,1 7.5,0Z" style="opacity: 1; stroke-width: 0px; fill: rgb(115, 71, 140); fill-opacity: 1;"/><path class="point" transform="translate(314.84,270.71)" d="M7.5,0A7.5,7.5 0 1,1 0,-7.5A7.5,7.5 0 0,1 7.5,0Z" style="opacity: 1; stroke-width: 0px; fill: rgb(121, 74, 134); fill-opacity: 1;"/><path class="point" transform="translate(326.93,237.54)" d="M7.5,0A7.5,7.5 0 1,1 0,-7.5A7.5,7.5 0 0,1 7.5,0Z" style="opacity: 1; stroke-width: 0px; fill: rgb(128, 78, 128); fill-opacity: 1;"/><path class="point" transform="translate(463.09,216.99)" d="M7.5,0A7.5,7.5 0 1,1 0,-7.5A7.5,7.5 0 0,1 7.5,0Z" style="opacity: 1; stroke-width: 0px; fill: rgb(134, 82, 121); fill-opacity: 1;"/><path class="point" transform="translate(551.72,191.63)" d="M7.5,0A7.5,7.5 0 1,1 0,-7.5A7.5,7.5 0 0,1 7.5,0Z" style="opacity: 1; stroke-width: 0px; fill: rgb(140, 85, 115); fill-opacity: 1;"/><path class="point" transform="translate(542.86,235.43)" d="M7.5,0A7.5,7.5 0 1,1 0,-7.5A7.5,7.5 0 0,1 7.5,0Z" style="opacity: 1; stroke-width: 0px; fill: rgb(146, 89, 109); fill-opacity: 1;"/><path class="point" transform="translate(460.67,237.87)" d="M7.5,0A7.5,7.5 0 1,1 0,-7.5A7.5,7.5 0 0,1 7.5,0Z" style="opacity: 1; stroke-width: 0px; fill: rgb(152, 93, 103); fill-opacity: 1;"/><path class="point" transform="translate(600.06,176.99)" d="M7.5,0A7.5,7.5 0 1,1 0,-7.5A7.5,7.5 0 0,1 7.5,0Z" style="opacity: 1; stroke-width: 0px; fill: rgb(158, 97, 97); fill-opacity: 1;"/><path class="point" transform="translate(562.19,160.61)" d="M7.5,0A7.5,7.5 0 1,1 0,-7.5A7.5,7.5 0 0,1 7.5,0Z" style="opacity: 1; stroke-width: 0px; fill: rgb(164, 100, 91); fill-opacity: 1;"/><path class="point" transform="translate(587.98,146.79)" d="M7.5,0A7.5,7.5 0 1,1 0,-7.5A7.5,7.5 0 0,1 7.5,0Z" style="opacity: 1; stroke-width: 0px; fill: rgb(170, 104, 85); fill-opacity: 1;"/><path class="point" transform="translate(468.73,275.31)" d="M7.5,0A7.5,7.5 0 1,1 0,-7.5A7.5,7.5 0 0,1 7.5,0Z" style="opacity: 1; stroke-width: 0px; fill: rgb(176, 108, 79); fill-opacity: 1;"/><path class="point" transform="translate(578.31,213.77)" d="M7.5,0A7.5,7.5 0 1,1 0,-7.5A7.5,7.5 0 0,1 7.5,0Z" style="opacity: 1; stroke-width: 0px; fill: rgb(182, 111, 73); fill-opacity: 1;"/><path class="point" transform="translate(642.76,109.54)" d="M7.5,0A7.5,7.5 0 1,1 0,-7.5A7.5,7.5 0 0,1 7.5,0Z" style="opacity: 1; stroke-width: 0px; fill: rgb(188, 115, 67); fill-opacity: 1;"/><path class="point" transform="translate(534.8,205.31)" d="M7.5,0A7.5,7.5 0 1,1 0,-7.5A7.5,7.5 0 0,1 7.5,0Z" style="opacity: 1; stroke-width: 0px; fill: rgb(194, 119, 61); fill-opacity: 1;"/><path class="point" transform="translate(570.25,131.69)" d="M7.5,0A7.5,7.5 0 1,1 0,-7.5A7.5,7.5 0 0,1 7.5,0Z" style="opacity: 1; stroke-width: 0px; fill: rgb(200, 123, 55); fill-opacity: 1;"/><path class="point" transform="translate(600.06,172.59)" d="M7.5,0A7.5,7.5 0 1,1 0,-7.5A7.5,7.5 0 0,1 7.5,0Z" style="opacity: 1; stroke-width: 0px; fill: rgb(206, 126, 49); fill-opacity: 1;"/><path class="point" transform="translate(665.32,161.92)" d="M7.5,0A7.5,7.5 0 1,1 0,-7.5A7.5,7.5 0 0,1 7.5,0Z" style="opacity: 1; stroke-width: 0px; fill: rgb(213, 130, 42); fill-opacity: 1;"/><path class="point" transform="translate(811.96,82.29)" d="M7.5,0A7.5,7.5 0 1,1 0,-7.5A7.5,7.5 0 0,1 7.5,0Z" style="opacity: 1; stroke-width: 0px; fill: rgb(219, 134, 36); fill-opacity: 1;"/><path class="point" transform="translate(925.57,150.88)" d="M7.5,0A7.5,7.5 0 1,1 0,-7.5A7.5,7.5 0 0,1 7.5,0Z" style="opacity: 1; stroke-width: 0px; fill: rgb(225, 137, 30); fill-opacity: 1;"/><path class="point" transform="translate(834.52,108.68)" d="M7.5,0A7.5,7.5 0 1,1 0,-7.5A7.5,7.5 0 0,1 7.5,0Z" style="opacity: 1; stroke-width: 0px; fill: rgb(231, 141, 24); fill-opacity: 1;"/><path class="point" transform="translate(764.43,93.17)" d="M7.5,0A7.5,7.5 0 1,1 0,-7.5A7.5,7.5 0 0,1 7.5,0Z" style="opacity: 1; stroke-width: 0px; fill: rgb(237, 145, 18); fill-opacity: 1;"/><path class="point" transform="translate(890.12,32.28)" d="M7.5,0A7.5,7.5 0 1,1 0,-7.5A7.5,7.5 0 0,1 7.5,0Z" style="opacity: 1; stroke-width: 0px; fill: rgb(243, 149, 12); fill-opacity: 1;"/><path class="point" transform="translate(926.37,105.87)" d="M7.5,0A7.5,7.5 0 1,1 0,-7.5A7.5,7.5 0 0,1 7.5,0Z" style="opacity: 1; stroke-width: 0px; fill: rgb(249, 152, 6); fill-opacity: 1;"/><path class="point" transform="translate(761.2,107.85)" d="M7.5,0A7.5,7.5 0 1,1 0,-7.5A7.5,7.5 0 0,1 7.5,0Z" style="opacity: 1; stroke-width: 0px; fill: rgb(255, 156, 0); fill-opacity: 1;"/></g><g class="text"/></g></g></g><g class="overplot"/><path class="xlines-above crisp" d="M79,518.5H1065" style="fill: none; stroke-width: 1px; stroke: rgb(0, 0, 0); stroke-opacity: 1;"/><path class="ylines-above crisp" d="M79.5,60V518" style="fill: none; stroke-width: 1px; stroke: rgb(0, 0, 0); stroke-opacity: 1;"/><g class="overlines-above"/><g class="xaxislayer-above"><g class="xtick"><text text-anchor="middle" x="0" y="547.8" transform="translate(219.2,0)" style="font-family: Arial; font-size: 24px; fill: rgb(42, 63, 95); fill-opacity: 1; white-space: pre; opacity: 1;">0.2</text></g><g class="xtick"><text text-anchor="middle" x="0" y="547.8" style="font-family: Arial; font-size: 24px; fill: rgb(42, 63, 95); fill-opacity: 1; white-space: pre; opacity: 1;" transform="translate(412.57,0)">0.4</text></g><g class="xtick"><text text-anchor="middle" x="0" y="547.8" style="font-family: Arial; font-size: 24px; fill: rgb(42, 63, 95); fill-opacity: 1; white-space: pre; opacity: 1;" transform="translate(605.94,0)">0.6</text></g><g class="xtick"><text text-anchor="middle" x="0" y="547.8" style="font-family: Arial; font-size: 24px; fill: rgb(42, 63, 95); fill-opacity: 1; white-space: pre; opacity: 1;" transform="translate(799.31,0)">0.8</text></g><g class="xtick"><text text-anchor="middle" x="0" y="547.8" style="font-family: Arial; font-size: 24px; fill: rgb(42, 63, 95); fill-opacity: 1; white-space: pre; opacity: 1;" transform="translate(992.68,0)">1</text></g></g><g class="yaxislayer-above"><g class="ytick"><text text-anchor="end" x="74.2" y="8.399999999999999" transform="translate(0,479.89)" style="font-family: Arial; font-size: 24px; fill: rgb(42, 63, 95); fill-opacity: 1; white-space: pre; opacity: 1;">50</text></g><g class="ytick"><text text-anchor="end" x="74.2" y="8.399999999999999" style="font-family: Arial; font-size: 24px; fill: rgb(42, 63, 95); fill-opacity: 1; white-space: pre; opacity: 1;" transform="translate(0,382.72)">55</text></g><g class="ytick"><text text-anchor="end" x="74.2" y="8.399999999999999" style="font-family: Arial; font-size: 24px; fill: rgb(42, 63, 95); fill-opacity: 1; white-space: pre; opacity: 1;" transform="translate(0,285.55)">60</text></g><g class="ytick"><text text-anchor="end" x="74.2" y="8.399999999999999" style="font-family: Arial; font-size: 24px; fill: rgb(42, 63, 95); fill-opacity: 1; white-space: pre; opacity: 1;" transform="translate(0,188.38)">65</text></g><g class="ytick"><text text-anchor="end" x="74.2" y="8.399999999999999" style="font-family: Arial; font-size: 24px; fill: rgb(42, 63, 95); fill-opacity: 1; white-space: pre; opacity: 1;" transform="translate(0,91.21000000000001)">70</text></g></g><g class="overaxes-above"/></g></g><g class="polarlayer"/><g class="smithlayer"/><g class="ternarylayer"/><g class="geolayer"/><g class="funnelarealayer"/><g class="pielayer"/><g class="iciclelayer"/><g class="treemaplayer"/><g class="sunburstlayer"/><g class="glimages"/><defs id="topdefs-b7b909"><g class="clips"/></defs><g class="layer-above"><g class="imagelayer"/><g class="shapelayer"/></g><g class="infolayer"><g class="cbcoloraxis colorbar" transform="translate(80,60)"><rect class="cbbg" x="1005" y="0" width="103.40625" height="458" style="fill: rgb(0, 0, 0); fill-opacity: 0; stroke: rgb(68, 68, 68); stroke-opacity: 1; stroke-width: 0;"/><g class="cbfills" transform="translate(0,47)"><rect class="cbfill gradient_filled" x="1015" y="0" width="30" height="401" style="fill: url('#gb7b909-cbcoloraxis');"/></g><g class="cblines" transform="translate(0,47)"/><g class="cbaxis crisp" transform="translate(0,-60)"><g class="ycbcoloraxistick"><text text-anchor="start" x="1050.3" y="8.399999999999999" transform="translate(0,498.45000000000005)" style="font-family: Arial; font-size: 24px; fill: rgb(42, 63, 95); fill-opacity: 1; white-space: pre; opacity: 1;">1980</text></g><g class="ycbcoloraxistick"><text text-anchor="start" x="1050.3" y="8.399999999999999" style="font-family: Arial; font-size: 24px; fill: rgb(42, 63, 95); fill-opacity: 1; white-space: pre; opacity: 1;" transform="translate(0,450.71000000000004)">1985</text></g><g class="ycbcoloraxistick"><text text-anchor="start" x="1050.3" y="8.399999999999999" style="font-family: Arial; font-size: 24px; fill: rgb(42, 63, 95); fill-opacity: 1; white-space: pre; opacity: 1;" transform="translate(0,402.98)">1990</text></g><g class="ycbcoloraxistick"><text text-anchor="start" x="1050.3" y="8.399999999999999" style="font-family: Arial; font-size: 24px; fill: rgb(42, 63, 95); fill-opacity: 1; white-space: pre; opacity: 1;" transform="translate(0,355.24)">1995</text></g><g class="ycbcoloraxistick"><text text-anchor="start" x="1050.3" y="8.399999999999999" style="font-family: Arial; font-size: 24px; fill: rgb(42, 63, 95); fill-opacity: 1; white-space: pre; opacity: 1;" transform="translate(0,307.5)">2000</text></g><g class="ycbcoloraxistick"><text text-anchor="start" x="1050.3" y="8.399999999999999" style="font-family: Arial; font-size: 24px; fill: rgb(42, 63, 95); fill-opacity: 1; white-space: pre; opacity: 1;" transform="translate(0,259.76)">2005</text></g><g class="ycbcoloraxistick"><text text-anchor="start" x="1050.3" y="8.399999999999999" style="font-family: Arial; font-size: 24px; fill: rgb(42, 63, 95); fill-opacity: 1; white-space: pre; opacity: 1;" transform="translate(0,212.02000000000004)">2010</text></g><g class="ycbcoloraxistick"><text text-anchor="start" x="1050.3" y="8.399999999999999" style="font-family: Arial; font-size: 24px; fill: rgb(42, 63, 95); fill-opacity: 1; white-space: pre; opacity: 1;" transform="translate(0,164.29000000000002)">2015</text></g><g class="ycbcoloraxistick"><text text-anchor="start" x="1050.3" y="8.399999999999999" style="font-family: Arial; font-size: 24px; fill: rgb(42, 63, 95); fill-opacity: 1; white-space: pre; opacity: 1;" transform="translate(0,116.55000000000003)">2020</text></g></g><g class="cbtitleunshift" transform="translate(-80,-60)"><g class="cbtitle" transform=""><text class="ycbcoloraxistitle" x="1094.7" y="94.75" text-anchor="start" style="font-family: Arial; font-size: 29px; fill: rgb(42, 63, 95); opacity: 1; font-weight: normal; white-space: pre;">Year</text></g></g><rect class="cboutline" x="1015" y="47" width="30" height="401" style="stroke: rgb(68, 68, 68); stroke-opacity: 1; fill: none; stroke-width: 0;"/></g><g class="g-gtitle"/><g class="g-xtitle"><text class="xtitle" x="572.5" y="587.6125" text-anchor="middle" style="font-family: Arial; font-size: 29px; fill: rgb(42, 63, 95); opacity: 1; font-weight: normal; white-space: pre;">Yearly temperature anomaly (°C)</text></g><g class="g-ytitle" transform="translate(13.2998046875,0)"><text class="ytitle" transform="rotate(-90,12.700000000000003,289)" x="12.700000000000003" y="289" text-anchor="middle" style="font-family: Arial; font-size: 29px; fill: rgb(42, 63, 95); opacity: 1; font-weight: normal; white-space: pre;">Exposure (%)</text></g></g></svg>