<svg class="main-svg" xmlns="http://www.w3.org/2000/svg" xmlns:xlink="http://www.w3.org/1999/xlink" width="1200" height="600" style="" viewBox="0 0 1200 600"><rect x="0" y="0" width="1200" height="600" style="fill: rgb(255, 250, 229); fill-opacity: 1;"/><defs id="defs-fed5e7"><g class="clips"><clipPath id="clipfed5e7xyplot" class="plotclip"><rect width="985" height="458"/></clipPath><clipPath class="axesclip" id="clipfed5e7x"><rect x="93" y="0" width="985" height="600"/></clipPath><clipPath class="axesclip" id="clipfed5e7y"><rect x="0" y="60" width="1200" height="458"/></clipPath><clipPath class="axesclip" id="clipfed5e7xy"><rect x="93" y="60" width="985" height="458"/></clipPath></g><g class="gradients"/><g class="patterns"/></defs><g class="bglayer"/><g class="layer-below"><g class="imagelayer"/><g class="shapelayer"/></g><g class="cartesianlayer"><g class="subplot xy"><g class="layer-subplot"><g class="shapelayer"/><g class="imagelayer"/></g><g class="minor-gridlayer"><g class="x"/><g class="y"/></g><g class="gridlayer"><g class="x"/><g class="y"/></g><g class="zerolinelayer"><path class="xzl zl crisp" transform="translate(94.09,0)" d="M0,60v458" style="stroke: rgb(255, 255, 255); stroke-opacity: 1; stroke-width: 2px;"/><path class="yzl zl crisp" transform="translate(0,513.6800000000001)" d="M93,0h985" style="stroke: rgb(255, 255, 255); stroke-opacity: 1; stroke-width: 2px;"/></g><path class="xlines-below"/><path class="ylines-below"/><g class="overlines-below"/><g class="xaxislayer-below"/><g class="yaxislayer-below"/><g class="overaxes-below"/><g class="plot" transform="translate(93,60)" clip-path="url(#clipfed5e7xyplot)"><g class="scatterlayer mlayer"><g class="trace scatter tracedf966a" style="stroke-miterlimit: 2; opacity: 1;"><g class="fills"/><g class="errorbars"/><g class="lines"/><g class="points"><path class="point" transform="translate(318.2,453.68)" d="M7.5,0A7.5,7.5 0 1,1 0,-7.5A7.5,7.5 0 0,1 7.5,0Z" style="opacity: 1; stroke-width: 0px; fill: rgb(89, 161, 79); fill-opacity: 0.8;"/><path class="point" transform="translate(220.29,453.68)" d="M7.5,0A7.5,7.5 0 1,1 0,-7.5A7.5,7.5 0 0,1 7.5,0Z" style="opacity: 1; stroke-width: 0px; fill: rgb(89, 161, 79); fill-opacity: 0.8;"/><path class="point" transform="translate(447.43,453.68)" d="M7.5,0A7.5,7.5 0 1,1 0,-7.5A7.5,7.5 0 0,1 7.5,0Z" style="opacity: 1; stroke-width: 0px; fill: rgb(89, 161, 79); fill-opacity: 0.8;"/><path class="point" transform="translate(180.36,453.68)" d="M7.5,0A7.5,7.5 0 1,1 0,-7.5A7.5,7.5 0 0,1 7.5,0Z" style="opacity: 1; stroke-width: 0px; fill: rgb(89, 161, 79); fill-opacity: 0.8;"/><path class="point" transform="translate(640.88,139.7)" d="M7.5,0A7.5,7.5 0 1,1 0,-7.5A7.5,7.5 0 0,1 7.5,0Z" style="opacity: 1; stroke-width: 0px; fill: rgb(89, 161, 79); fill-opacity: 0.8;"/><path class="point" transform="translate(551.35,379.35)" d="M7.5,0A7.5,7.5 0 1,1 0,-7.5A7.5,7.5 0 0,1 7.5,0Z" style="opacity: 1; stroke-width: 0px; fill: rgb(89, 161, 79); fill-opacity: 0.8;"/><path class="point" transform="translate(514.39,332.39)" d="M7.5,0A7.5,7.5 0 1,1 0,-7.5A7.5,7.5 0 0,1 7.5,0Z" style="opacity: 1; stroke-width: 0px; fill: rgb(89, 161, 79); fill-opacity: 0.8;"/><path class="point" transform="translate(109.56,307.99)" d="M7.5,0A7.5,7.5 0 1,1 0,-7.5A7.5,7.5 0 0,1 7.5,0Z" style="opacity: 1; stroke-width: 0px; fill: rgb(89, 161, 79); fill-opacity: 0.8;"/><path class="point" transform="translate(275.93,435.41)" d="M7.5,0A7.5,7.5 0 1,1 0,-7.5A7.5,7.5 0 0,1 7.5,0Z" style="opacity: 1; stroke-width: 0px; fill: rgb(89, 161, 79); fill-opacity: 0.8;"/><path class="point" transform="translate(67.47,319.94)" d="M7.5,0A7.5,7.5 0 1,1 0,-7.5A7.5,7.5 0 0,1 7.5,0Z" style="opacity: 1; stroke-width: 0px; fill: rgb(89, 161, 79); fill-opacity: 0.8;"/><path class="point" transform="translate(71.01,428.4)" d="M7.5,0A7.5,7.5 0 1,1 0,-7.5A7.5,7.5 0 0,1 7.5,0Z" style="opacity: 1; stroke-width: 0px; fill: rgb(89, 161, 79); fill-opacity: 0.8;"/><path class="point" transform="translate(195.56,453.68)" d="M7.5,0A7.5,7.5 0 1,1 0,-7.5A7.5,7.5 0 0,1 7.5,0Z" style="opacity: 1; stroke-width: 0px; fill: rgb(89, 161, 79); fill-opacity: 0.8;"/><path class="point" transform="translate(326.45,264.29)" d="M7.5,0A7.5,7.5 0 1,1 0,-7.5A7.5,7.5 0 0,1 7.5,0Z" style="opacity: 1; stroke-width: 0px; fill: rgb(89, 161, 79); fill-opacity: 0.8;"/><path class="point" transform="translate(35.67,453.68)" d="M7.5,0A7.5,7.5 0 1,1 0,-7.5A7.5,7.5 0 0,1 7.5,0Z" style="opacity: 1; stroke-width: 0px; fill: rgb(89, 161, 79); fill-opacity: 0.8;"/><path class="point" transform="translate(511.79,428.7)" d="M7.5,0A7.5,7.5 0 1,1 0,-7.5A7.5,7.5 0 0,1 7.5,0Z" style="opacity: 1; stroke-width: 0px; fill: rgb(89, 161, 79); fill-opacity: 0.8;"/><path class="point" transform="translate(953.67,448.13)" d="M7.5,0A7.5,7.5 0 1,1 0,-7.5A7.5,7.5 0 0,1 7.5,0Z" style="opacity: 1; stroke-width: 0px; fill: rgb(89, 161, 79); fill-opacity: 0.8;"/><path class="point" transform="translate(164.79,450.01)" d="M7.5,0A7.5,7.5 0 1,1 0,-7.5A7.5,7.5 0 0,1 7.5,0Z" style="opacity: 1; stroke-width: 0px; fill: rgb(89, 161, 79); fill-opacity: 0.8;"/><path class="point" transform="translate(214.6,453.68)" d="M7.5,0A7.5,7.5 0 1,1 0,-7.5A7.5,7.5 0 0,1 7.5,0Z" style="opacity: 1; stroke-width: 0px; fill: rgb(89, 161, 79); fill-opacity: 0.8;"/><path class="point" transform="translate(69.05,325.74)" d="M7.5,0A7.5,7.5 0 1,1 0,-7.5A7.5,7.5 0 0,1 7.5,0Z" style="opacity: 1; stroke-width: 0px; fill: rgb(89, 161, 79); fill-opacity: 0.8;"/><path class="point" transform="translate(17.75,453.68)" d="M7.5,0A7.5,7.5 0 1,1 0,-7.5A7.5,7.5 0 0,1 7.5,0Z" style="opacity: 1; stroke-width: 0px; fill: rgb(89, 161, 79); fill-opacity: 0.8;"/><path class="point" transform="translate(36.57,453.68)" d="M7.5,0A7.5,7.5 0 1,1 0,-7.5A7.5,7.5 0 0,1 7.5,0Z" style="opacity: 1; stroke-width: 0px; fill: rgb(89, 161, 79); fill-opacity: 0.8;"/><path class="point" transform="translate(136.16,426.61)" d="M7.5,0A7.5,7.5 0 1,1 0,-7.5A7.5,7.5 0 0,1 7.5,0Z" style="opacity: 1; stroke-width: 0px; fill: rgb(89, 161, 79); fill-opacity: 0.8;"/><path class="point" transform="translate(930.19,453.68)" d="M7.5,0A7.5,7.5 0 1,1 0,-7.5A7.5,7.5 0 0,1 7.5,0Z" style="opacity: 1; stroke-width: 0px; fill: rgb(89, 161, 79); fill-opacity: 0.8;"/><path class="point" transform="translate(322.08,246.74)" d="M7.5,0A7.5,7.5 0 1,1 0,-7.5A7.5,7.5 0 0,1 7.5,0Z" style="opacity: 1; stroke-width: 0px; fill: rgb(89, 161, 79); fill-opacity: 0.8;"/><path class="point" transform="translate(260.25,416.65)" d="M7.5,0A7.5,7.5 0 1,1 0,-7.5A7.5,7.5 0 0,1 7.5,0Z" style="opacity: 1; stroke-width: 0px; fill: rgb(89, 161, 79); fill-opacity: 0.8;"/><path class="point" transform="translate(519.57,344.2)" d="M7.5,0A7.5,7.5 0 1,1 0,-7.5A7.5,7.5 0 0,1 7.5,0Z" style="opacity: 1; stroke-width: 0px; fill: rgb(89, 161, 79); fill-opacity: 0.8;"/><path class="point" transform="translate(85.05,453.68)" d="M7.5,0A7.5,7.5 0 1,1 0,-7.5A7.5,7.5 0 0,1 7.5,0Z" style="opacity: 1; stroke-width: 0px; fill: rgb(89, 161, 79); fill-opacity: 0.8;"/><path class="point" transform="translate(675.76,453.68)" d="M7.5,0A7.5,7.5 0 1,1 0,-7.5A7.5,7.5 0 0,1 7.5,0Z" style="opacity: 1; stroke-width: 0px; fill: rgb(89, 161, 79); fill-opacity: 0.8;"/><path class="point" transform="translate(86.97,397.15)" d="M7.5,0A7.5,7.5 0 1,1 0,-7.5A7.5,7.5 0 0,1 7.5,0Z" style="opacity: 1; stroke-width: 0px; fill: rgb(89, 161, 79); fill-opacity: 0.8;"/><path class="point" transform="translate(67.59,447.48)" d="M7.5,0A7.5,7.5 0 1,1 0,-7.5A7.5,7.5 0 0,1 7.5,0Z" style="opacity: 1; stroke-width: 0px; fill: rgb(89, 161, 79); fill-opacity: 0.8;"/><path class="point" transform="translate(260.42,453.68)" d="M7.5,0A7.5,7.5 0 1,1 0,-7.5A7.5,7.5 0 0,1 7.5,0Z" style="opacity: 1; stroke-width: 0px; fill: rgb(89, 161, 79); fill-opacity: 0.8;"/><path class="point" transform="translate(9.6,371.2)" d="M7.5,0A7.5,7.5 0 1,1 0,-7.5A7.5,7.5 0 0,1 7.5,0Z" style="opacity: 1; stroke-width: 0px; fill: rgb(89, 161, 79); fill-opacity: 0.8;"/><path class="point" transform="translate(543.13,453.68)" d="M7.5,0A7.5,7.5 0 1,1 0,-7.5A7.5,7.5 0 0,1 7.5,0Z" style="opacity: 1; stroke-width: 0px; fill: rgb(89, 161, 79); fill-opacity: 0.8;"/><path class="point" transform="translate(60.95,453.68)" d="M7.5,0A7.5,7.5 0 1,1 0,-7.5A7.5,7.5 0 0,1 7.5,0Z" style="opacity: 1; stroke-width: 0px; fill: rgb(89, 161, 79); fill-opacity: 0.8;"/><path class="point" transform="translate(450.8,258.13)" d="M7.5,0A7.5,7.5 0 1,1 0,-7.5A7.5,7.5 0 0,1 7.5,0Z" style="opacity: 1; stroke-width: 0px; fill: rgb(89, 161, 79); fill-opacity: 0.8;"/><path class="point" transform="translate(81.53,409.61)" d="M7.5,0A7.5,7.5 0 1,1 0,-7.5A7.5,7.5 0 0,1 7.5,0Z" style="opacity: 1; stroke-width: 0px; fill: rgb(89, 161, 79); fill-opacity: 0.8;"/><path class="point" transform="translate(468.12,453.68)" d="M7.5,0A7.5,7.5 0 1,1 0,-7.5A7.5,7.5 0 0,1 7.5,0Z" style="opacity: 1; stroke-width: 0px; fill: rgb(89, 161, 79); fill-opacity: 0.8;"/><path class="point" transform="translate(102.02,453.68)" d="M7.5,0A7.5,7.5 0 1,1 0,-7.5A7.5,7.5 0 0,1 7.5,0Z" style="opacity: 1; stroke-width: 0px; fill: rgb(89, 161, 79); fill-opacity: 0.8;"/><path class="point" transform="translate(596.35,453.68)" d="M7.5,0A7.5,7.5 0 1,1 0,-7.5A7.5,7.5 0 0,1 7.5,0Z" style="opacity: 1; stroke-width: 0px; fill: rgb(89, 161, 79); fill-opacity: 0.8;"/><path class="point" transform="translate(50.37,357.37)" d="M7.5,0A7.5,7.5 0 1,1 0,-7.5A7.5,7.5 0 0,1 7.5,0Z" style="opacity: 1; stroke-width: 0px; fill: rgb(89, 161, 79); fill-opacity: 0.8;"/><path class="point" transform="translate(79.05,411.92)" d="M7.5,0A7.5,7.5 0 1,1 0,-7.5A7.5,7.5 0 0,1 7.5,0Z" style="opacity: 1; stroke-width: 0px; fill: rgb(89, 161, 79); fill-opacity: 0.8;"/><path class="point" transform="translate(164.02,288.47)" d="M7.5,0A7.5,7.5 0 1,1 0,-7.5A7.5,7.5 0 0,1 7.5,0Z" style="opacity: 1; stroke-width: 0px; fill: rgb(89, 161, 79); fill-opacity: 0.8;"/><path class="point" transform="translate(16.88,389.62)" d="M7.5,0A7.5,7.5 0 1,1 0,-7.5A7.5,7.5 0 0,1 7.5,0Z" style="opacity: 1; stroke-width: 0px; fill: rgb(89, 161, 79); fill-opacity: 0.8;"/><path class="point" transform="translate(45.09,345.14)" d="M7.5,0A7.5,7.5 0 1,1 0,-7.5A7.5,7.5 0 0,1 7.5,0Z" style="opacity: 1; stroke-width: 0px; fill: rgb(89, 161, 79); fill-opacity: 0.8;"/><path class="point" transform="translate(917.32,453.68)" d="M7.5,0A7.5,7.5 0 1,1 0,-7.5A7.5,7.5 0 0,1 7.5,0Z" style="opacity: 1; stroke-width: 0px; fill: rgb(89, 161, 79); fill-opacity: 0.8;"/><path class="point" transform="translate(752.12,453.68)" d="M7.5,0A7.5,7.5 0 1,1 0,-7.5A7.5,7.5 0 0,1 7.5,0Z" style="opacity: 1; stroke-width: 0px; fill: rgb(89, 161, 79); fill-opacity: 0.8;"/><path class="point" transform="translate(370.09,224.81)" d="M7.5,0A7.5,7.5 0 1,1 0,-7.5A7.5,7.5 0 0,1 7.5,0Z" style="opacity: 1; stroke-width: 0px; fill: rgb(89, 161, 79); fill-opacity: 0.8;"/><path class="point" transform="translate(59.2,342.31)" d="M7.5,0A7.5,7.5 0 1,1 0,-7.5A7.5,7.5 0 0,1 7.5,0Z" style="opacity: 1; stroke-width: 0px; fill: rgb(89, 161, 79); fill-opacity: 0.8;"/><path class="point" transform="translate(437.19,225.42)" d="M7.5,0A7.5,7.5 0 1,1 0,-7.5A7.5,7.5 0 0,1 7.5,0Z" style="opacity: 1; stroke-width: 0px; fill: rgb(89, 161, 79); fill-opacity: 0.8;"/><path class="point" transform="translate(21.89,369.16)" d="M7.5,0A7.5,7.5 0 1,1 0,-7.5A7.5,7.5 0 0,1 7.5,0Z" style="opacity: 1; stroke-width: 0px; fill: rgb(89, 161, 79); fill-opacity: 0.8;"/><path class="point" transform="translate(18.04,453.68)" d="M7.5,0A7.5,7.5 0 1,1 0,-7.5A7.5,7.5 0 0,1 7.5,0Z" style="opacity: 1; stroke-width: 0px; fill: rgb(89, 161, 79); fill-opacity: 0.8;"/><path class="point" transform="translate(229.75,453.68)" d="M7.5,0A7.5,7.5 0 1,1 0,-7.5A7.5,7.5 0 0,1 7.5,0Z" style="opacity: 1; stroke-width: 0px; fill: rgb(89, 161, 79); fill-opacity: 0.8;"/><path class="point" transform="translate(118.26,453.68)" d="M7.5,0A7.5,7.5 0 1,1 0,-7.5A7.5,7.5 0 0,1 7.5,0Z" style="opacity: 1; stroke-width: 0px; fill: rgb(89, 161, 79); fill-opacity: 0.8;"/><path class="point" transform="translate(12.68,453.68)" d="M7.5,0A7.5,7.5 0 1,1 0,-7.5A7.5,7.5 0 0,1 7.5,0Z" style="opacity: 1; stroke-width: 0px; fill: rgb(89, 161, 79); fill-opacity: 0.8;"/><path class="point" transform="translate(216.13,453.68)" d="M7.5,0A7.5,7.5 0 1,1 0,-7.5A7.5,7.5 0 0,1 7.5,0Z" style="opacity: 1; stroke-width: 0px; fill: rgb(89, 161, 79); fill-opacity: 0.8;"/><path class="point" transform="translate(199.64,453.68)" d="M7.5,0A7.5,7.5 0 1,1 0,-7.5A7.5,7.5 0 0,1 7.5,0Z" style="opacity: 1; stroke-width: 0px; fill: rgb(89, 161, 79); fill-opacity: 0.8;"/><path class="point" transform="translate(109.66,453.68)" d="M7.5,0A7.5,7.5 0 1,1 0,-7.5A7.5,7.5 0 0,1 7.5,0Z" style="opacity: 1; stroke-width: 0px; fill: rgb(89, 161, 79); fill-opacity: 0.8;"/><path class="point" transform="translate(58.9,453.68)" d="M7.5,0A7.5,7.5 0 1,1 0,-7.5A7.5,7.5 0 0,1 7.5,0Z" style="opacity: 1; stroke-width: 0px; fill: rgb(89, 161, 79); fill-opacity: 0.8;"/><path class="point" transform="translate(336.86,453.68)" d="M7.5,0A7.5,7.5 0 1,1 0,-7.5A7.5,7.5 0 0,1 7.5,0Z" style="opacity: 1; stroke-width: 0px; fill: rgb(89, 161, 79); fill-opacity: 0.8;"/><path class="point" transform="translate(93.02,386.58)" d="M7.5,0A7.5,7.5 0 1,1 0,-7.5A7.5,7.5 0 0,1 7.5,0Z" style="opacity: 1; stroke-width: 0px; fill: rgb(89, 161, 79); fill-opacity: 0.8;"/><path class="point" transform="translate(46.61,413.27)" d="M7.5,0A7.5,7.5 0 1,1 0,-7.5A7.5,7.5 0 0,1 7.5,0Z" style="opacity: 1; stroke-width: 0px; fill: rgb(89, 161, 79); fill-opacity: 0.8;"/><path class="point" transform="translate(160.47,453.68)" d="M7.5,0A7.5,7.5 0 1,1 0,-7.5A7.5,7.5 0 0,1 7.5,0Z" style="opacity: 1; stroke-width: 0px; fill: rgb(89, 161, 79); fill-opacity: 0.8;"/><path class="point" transform="translate(112.07,453.68)" d="M7.5,0A7.5,7.5 0 1,1 0,-7.5A7.5,7.5 0 0,1 7.5,0Z" style="opacity: 1; stroke-width: 0px; fill: rgb(89, 161, 79); fill-opacity: 0.8;"/><path class="point" transform="translate(368.88,453.68)" d="M7.5,0A7.5,7.5 0 1,1 0,-7.5A7.5,7.5 0 0,1 7.5,0Z" style="opacity: 1; stroke-width: 0px; fill: rgb(89, 161, 79); fill-opacity: 0.8;"/><path class="point" transform="translate(577.91,370.28)" d="M7.5,0A7.5,7.5 0 1,1 0,-7.5A7.5,7.5 0 0,1 7.5,0Z" style="opacity: 1; stroke-width: 0px; fill: rgb(89, 161, 79); fill-opacity: 0.8;"/><path class="point" transform="translate(853.89,453.68)" d="M7.5,0A7.5,7.5 0 1,1 0,-7.5A7.5,7.5 0 0,1 7.5,0Z" style="opacity: 1; stroke-width: 0px; fill: rgb(89, 161, 79); fill-opacity: 0.8;"/><path class="point" transform="translate(125.71,453.68)" d="M7.5,0A7.5,7.5 0 1,1 0,-7.5A7.5,7.5 0 0,1 7.5,0Z" style="opacity: 1; stroke-width: 0px; fill: rgb(89, 161, 79); fill-opacity: 0.8;"/><path class="point" transform="translate(484.59,453.68)" d="M7.5,0A7.5,7.5 0 1,1 0,-7.5A7.5,7.5 0 0,1 7.5,0Z" style="opacity: 1; stroke-width: 0px; fill: rgb(89, 161, 79); fill-opacity: 0.8;"/><path class="point" transform="translate(162.43,414.53)" d="M7.5,0A7.5,7.5 0 1,1 0,-7.5A7.5,7.5 0 0,1 7.5,0Z" style="opacity: 1; stroke-width: 0px; fill: rgb(89, 161, 79); fill-opacity: 0.8;"/><path class="point" transform="translate(73.73,411.8)" d="M7.5,0A7.5,7.5 0 1,1 0,-7.5A7.5,7.5 0 0,1 7.5,0Z" style="opacity: 1; stroke-width: 0px; fill: rgb(89, 161, 79); fill-opacity: 0.8;"/><path class="point" transform="translate(162.07,453.68)" d="M7.5,0A7.5,7.5 0 1,1 0,-7.5A7.5,7.5 0 0,1 7.5,0Z" style="opacity: 1; stroke-width: 0px; fill: rgb(89, 161, 79); fill-opacity: 0.8;"/><path class="point" transform="translate(29.09,429.76)" d="M7.5,0A7.5,7.5 0 1,1 0,-7.5A7.5,7.5 0 0,1 7.5,0Z" style="opacity: 1; stroke-width: 0px; fill: rgb(89, 161, 79); fill-opacity: 0.8;"/><path class="point" transform="translate(171.02,405.49)" d="M7.5,0A7.5,7.5 0 1,1 0,-7.5A7.5,7.5 0 0,1 7.5,0Z" style="opacity: 1; stroke-width: 0px; fill: rgb(89, 161, 79); fill-opacity: 0.8;"/><path class="point" transform="translate(253.06,337.01)" d="M7.5,0A7.5,7.5 0 1,1 0,-7.5A7.5,7.5 0 0,1 7.5,0Z" style="opacity: 1; stroke-width: 0px; fill: rgb(89, 161, 79); fill-opacity: 0.8;"/><path class="point" transform="translate(218.01,453.68)" d="M7.5,0A7.5,7.5 0 1,1 0,-7.5A7.5,7.5 0 0,1 7.5,0Z" style="opacity: 1; stroke-width: 0px; fill: rgb(89, 161, 79); fill-opacity: 0.8;"/><path class="point" transform="translate(673.68,136.28)" d="M7.5,0A7.5,7.5 0 1,1 0,-7.5A7.5,7.5 0 0,1 7.5,0Z" style="opacity: 1; stroke-width: 0px; fill: rgb(89, 161, 79); fill-opacity: 0.8;"/><path class="point" transform="translate(124.2,342.78)" d="M7.5,0A7.5,7.5 0 1,1 0,-7.5A7.5,7.5 0 0,1 7.5,0Z" style="opacity: 1; stroke-width: 0px; fill: rgb(89, 161, 79); fill-opacity: 0.8;"/><path class="point" transform="translate(686.82,453.68)" d="M7.5,0A7.5,7.5 0 1,1 0,-7.5A7.5,7.5 0 0,1 7.5,0Z" style="opacity: 1; stroke-width: 0px; fill: rgb(89, 161, 79); fill-opacity: 0.8;"/><path class="point" transform="translate(26.59,453.68)" d="M7.5,0A7.5,7.5 0 1,1 0,-7.5A7.5,7.5 0 0,1 7.5,0Z" style="opacity: 1; stroke-width: 0px; fill: rgb(89, 161, 79); fill-opacity: 0.8;"/><path class="point" transform="translate(518.16,453.68)" d="M7.5,0A7.5,7.5 0 1,1 0,-7.5A7.5,7.5 0 0,1 7.5,0Z" style="opacity: 1; stroke-width: 0px; fill: rgb(89, 161, 79); fill-opacity: 0.8;"/><path class="point" transform="translate(23.96,453.68)" d="M7.5,0A7.5,7.5 0 1,1 0,-7.5A7.5,7.5 0 0,1 7.5,0Z" style="opacity: 1; stroke-width: 0px; fill: rgb(89, 161, 79); fill-opacity: 0.8;"/><path class="point" transform="translate(214.05,356.9)" d="M7.5,0A7.5,7.5 0 1,1 0,-7.5A7.5,7.5 0 0,1 7.5,0Z" style="opacity: 1; stroke-width: 0px; fill: rgb(89, 161, 79); fill-opacity: 0.8;"/><path class="point" transform="translate(283.35,359.95)" d="M7.5,0A7.5,7.5 0 1,1 0,-7.5A7.5,7.5 0 0,1 7.5,0Z" style="opacity: 1; stroke-width: 0px; fill: rgb(89, 161, 79); fill-opacity: 0.8;"/><path class="point" transform="translate(600.03,453.68)" d="M7.5,0A7.5,7.5 0 1,1 0,-7.5A7.5,7.5 0 0,1 7.5,0Z" style="opacity: 1; stroke-width: 0px; fill: rgb(89, 161, 79); fill-opacity: 0.8;"/><path class="point" transform="translate(153.02,453.68)" d="M7.5,0A7.5,7.5 0 1,1 0,-7.5A7.5,7.5 0 0,1 7.5,0Z" style="opacity: 1; stroke-width: 0px; fill: rgb(89, 161, 79); fill-opacity: 0.8;"/><path class="point" transform="translate(268.01,453.68)" d="M7.5,0A7.5,7.5 0 1,1 0,-7.5A7.5,7.5 0 0,1 7.5,0Z" style="opacity: 1; stroke-width: 0px; fill: rgb(89, 161, 79); fill-opacity: 0.8;"/><path class="point" transform="translate(16.69,449.89)" d="M7.5,0A7.5,7.5 0 1,1 0,-7.5A7.5,7.5 0 0,1 7.5,0Z" style="opacity: 1; stroke-width: 0px; fill: rgb(89, 161, 79); fill-opacity: 0.8;"/><path class="point" transform="translate(51.06,453.68)" d="M7.5,0A7.5,7.5 0 1,1 0,-7.5A7.5,7.5 0 0,1 7.5,0Z" style="opacity: 1; stroke-width: 0px; fill: rgb(89, 161, 79); fill-opacity: 0.8;"/><path class="point" transform="translate(171.32,453.68)" d="M7.5,0A7.5,7.5 0 1,1 0,-7.5A7.5,7.5 0 0,1 7.5,0Z" style="opacity: 1; stroke-width: 0px; fill: rgb(89, 161, 79); fill-opacity: 0.8;"/><path class="point" transform="translate(52.68,453.68)" d="M7.5,0A7.5,7.5 0 1,1 0,-7.5A7.5,7.5 0 0,1 7.5,0Z" style="opacity: 1; stroke-width: 0px; fill: rgb(89, 161, 79); fill-opacity: 0.8;"/><path class="point" transform="translate(12.6,364.38)" d="M7.5,0A7.5,7.5 0 1,1 0,-7.5A7.5,7.5 0 0,1 7.5,0Z" style="opacity: 1; stroke-width: 0px; fill: rgb(89, 161, 79); fill-opacity: 0.8;"/><path class="point" transform="translate(194.35,317.65)" d="M7.5,0A7.5,7.5 0 1,1 0,-7.5A7.5,7.5 0 0,1 7.5,0Z" style="opacity: 1; stroke-width: 0px; fill: rgb(89, 161, 79); fill-opacity: 0.8;"/><path class="point" transform="translate(693.57,201.09)" d="M7.5,0A7.5,7.5 0 1,1 0,-7.5A7.5,7.5 0 0,1 7.5,0Z" style="opacity: 1; stroke-width: 0px; fill: rgb(89, 161, 79); fill-opacity: 0.8;"/><path class="point" transform="translate(92.66,453.68)" d="M7.5,0A7.5,7.5 0 1,1 0,-7.5A7.5,7.5 0 0,1 7.5,0Z" style="opacity: 1; stroke-width: 0px; fill: rgb(89, 161, 79); fill-opacity: 0.8;"/><path class="point" transform="translate(34.3,453.68)" d="M7.5,0A7.5,7.5 0 1,1 0,-7.5A7.5,7.5 0 0,1 7.5,0Z" style="opacity: 1; stroke-width: 0px; fill: rgb(89, 161, 79); fill-opacity: 0.8;"/><path class="point" transform="translate(46.12,453.68)" d="M7.5,0A7.5,7.5 0 1,1 0,-7.5A7.5,7.5 0 0,1 7.5,0Z" style="opacity: 1; stroke-width: 0px; fill: rgb(89, 161, 79); fill-opacity: 0.8;"/></g><g class="text"/></g><g class="trace scatter trace8797a2" style="stroke-miterlimit: 2; opacity: 1;"><g class="fills"/><g class="errorbars"/><g class="lines"/><g class="points"><path class="point" transform="translate(6.39,189.07)" d="M7.5,0A7.5,7.5 0 1,1 0,-7.5A7.5,7.5 0 0,1 7.5,0Z" style="opacity: 1; stroke-width: 0px; fill: rgb(242, 142, 43); fill-opacity: 0.8;"/><path class="point" transform="translate(30.69,331.17)" d="M7.5,0A7.5,7.5 0 1,1 0,-7.5A7.5,7.5 0 0,1 7.5,0Z" style="opacity: 1; stroke-width: 0px; fill: rgb(242, 142, 43); fill-opacity: 0.8;"/><path class="point" transform="translate(59.74,241.52)" d="M7.5,0A7.5,7.5 0 1,1 0,-7.5A7.5,7.5 0 0,1 7.5,0Z" style="opacity: 1; stroke-width: 0px; fill: rgb(242, 142, 43); fill-opacity: 0.8;"/><path class="point" transform="translate(472.86,88.91)" d="M7.5,0A7.5,7.5 0 1,1 0,-7.5A7.5,7.5 0 0,1 7.5,0Z" style="opacity: 1; stroke-width: 0px; fill: rgb(242, 142, 43); fill-opacity: 0.8;"/><path class="point" transform="translate(123,117.35)" d="M7.5,0A7.5,7.5 0 1,1 0,-7.5A7.5,7.5 0 0,1 7.5,0Z" style="opacity: 1; stroke-width: 0px; fill: rgb(242, 142, 43); fill-opacity: 0.8;"/><path class="point" transform="translate(50.8,204.95)" d="M7.5,0A7.5,7.5 0 1,1 0,-7.5A7.5,7.5 0 0,1 7.5,0Z" style="opacity: 1; stroke-width: 0px; fill: rgb(242, 142, 43); fill-opacity: 0.8;"/><path class="point" transform="translate(51.06,152.94)" d="M7.5,0A7.5,7.5 0 1,1 0,-7.5A7.5,7.5 0 0,1 7.5,0Z" style="opacity: 1; stroke-width: 0px; fill: rgb(242, 142, 43); fill-opacity: 0.8;"/><path class="point" transform="translate(14.35,167.56)" d="M7.5,0A7.5,7.5 0 1,1 0,-7.5A7.5,7.5 0 0,1 7.5,0Z" style="opacity: 1; stroke-width: 0px; fill: rgb(242, 142, 43); fill-opacity: 0.8;"/><path class="point" transform="translate(9.81,28.28)" d="M7.5,0A7.5,7.5 0 1,1 0,-7.5A7.5,7.5 0 0,1 7.5,0Z" style="opacity: 1; stroke-width: 0px; fill: rgb(242, 142, 43); fill-opacity: 0.8;"/><path class="point" transform="translate(24.07,62.14)" d="M7.5,0A7.5,7.5 0 1,1 0,-7.5A7.5,7.5 0 0,1 7.5,0Z" style="opacity: 1; stroke-width: 0px; fill: rgb(242, 142, 43); fill-opacity: 0.8;"/><path class="point" transform="translate(66.4,312.82)" d="M7.5,0A7.5,7.5 0 1,1 0,-7.5A7.5,7.5 0 0,1 7.5,0Z" style="opacity: 1; stroke-width: 0px; fill: rgb(242, 142, 43); fill-opacity: 0.8;"/><path class="point" transform="translate(37.47,304.64)" d="M7.5,0A7.5,7.5 0 1,1 0,-7.5A7.5,7.5 0 0,1 7.5,0Z" style="opacity: 1; stroke-width: 0px; fill: rgb(242, 142, 43); fill-opacity: 0.8;"/><path class="point" transform="translate(93.37,188.87)" d="M7.5,0A7.5,7.5 0 1,1 0,-7.5A7.5,7.5 0 0,1 7.5,0Z" style="opacity: 1; stroke-width: 0px; fill: rgb(242, 142, 43); fill-opacity: 0.8;"/><path class="point" transform="translate(73.25,46.89)" d="M7.5,0A7.5,7.5 0 1,1 0,-7.5A7.5,7.5 0 0,1 7.5,0Z" style="opacity: 1; stroke-width: 0px; fill: rgb(242, 142, 43); fill-opacity: 0.8;"/><path class="point" transform="translate(5.85,44.55)" d="M7.5,0A7.5,7.5 0 1,1 0,-7.5A7.5,7.5 0 0,1 7.5,0Z" style="opacity: 1; stroke-width: 0px; fill: rgb(242, 142, 43); fill-opacity: 0.8;"/><path class="point" transform="translate(113.31,118.01)" d="M7.5,0A7.5,7.5 0 1,1 0,-7.5A7.5,7.5 0 0,1 7.5,0Z" style="opacity: 1; stroke-width: 0px; fill: rgb(242, 142, 43); fill-opacity: 0.8;"/><path class="point" transform="translate(26.06,150.65)" d="M7.5,0A7.5,7.5 0 1,1 0,-7.5A7.5,7.5 0 0,1 7.5,0Z" style="opacity: 1; stroke-width: 0px; fill: rgb(242, 142, 43); fill-opacity: 0.8;"/><path class="point" transform="translate(18.19,228.1)" d="M7.5,0A7.5,7.5 0 1,1 0,-7.5A7.5,7.5 0 0,1 7.5,0Z" style="opacity: 1; stroke-width: 0px; fill: rgb(242, 142, 43); fill-opacity: 0.8;"/><path class="point" transform="translate(6.68,232.21)" d="M7.5,0A7.5,7.5 0 1,1 0,-7.5A7.5,7.5 0 0,1 7.5,0Z" style="opacity: 1; stroke-width: 0px; fill: rgb(242, 142, 43); fill-opacity: 0.8;"/><path class="point" transform="translate(25.05,317.06)" d="M7.5,0A7.5,7.5 0 1,1 0,-7.5A7.5,7.5 0 0,1 7.5,0Z" style="opacity: 1; stroke-width: 0px; fill: rgb(242, 142, 43); fill-opacity: 0.8;"/><path class="point" transform="translate(104.45,280.53)" d="M7.5,0A7.5,7.5 0 1,1 0,-7.5A7.5,7.5 0 0,1 7.5,0Z" style="opacity: 1; stroke-width: 0px; fill: rgb(242, 142, 43); fill-opacity: 0.8;"/><path class="point" transform="translate(33.59,224.8)" d="M7.5,0A7.5,7.5 0 1,1 0,-7.5A7.5,7.5 0 0,1 7.5,0Z" style="opacity: 1; stroke-width: 0px; fill: rgb(242, 142, 43); fill-opacity: 0.8;"/><path class="point" transform="translate(43.47,81.66)" d="M7.5,0A7.5,7.5 0 1,1 0,-7.5A7.5,7.5 0 0,1 7.5,0Z" style="opacity: 1; stroke-width: 0px; fill: rgb(242, 142, 43); fill-opacity: 0.8;"/><path class="point" transform="translate(33.2,33)" d="M7.5,0A7.5,7.5 0 1,1 0,-7.5A7.5,7.5 0 0,1 7.5,0Z" style="opacity: 1; stroke-width: 0px; fill: rgb(242, 142, 43); fill-opacity: 0.8;"/><path class="point" transform="translate(7.47,96.07)" d="M7.5,0A7.5,7.5 0 1,1 0,-7.5A7.5,7.5 0 0,1 7.5,0Z" style="opacity: 1; stroke-width: 0px; fill: rgb(242, 142, 43); fill-opacity: 0.8;"/><path class="point" transform="translate(318.52,189.83)" d="M7.5,0A7.5,7.5 0 1,1 0,-7.5A7.5,7.5 0 0,1 7.5,0Z" style="opacity: 1; stroke-width: 0px; fill: rgb(242, 142, 43); fill-opacity: 0.8;"/><path class="point" transform="translate(50.92,164.01)" d="M7.5,0A7.5,7.5 0 1,1 0,-7.5A7.5,7.5 0 0,1 7.5,0Z" style="opacity: 1; stroke-width: 0px; fill: rgb(242, 142, 43); fill-opacity: 0.8;"/><path class="point" transform="translate(24.99,167.63)" d="M7.5,0A7.5,7.5 0 1,1 0,-7.5A7.5,7.5 0 0,1 7.5,0Z" style="opacity: 1; stroke-width: 0px; fill: rgb(242, 142, 43); fill-opacity: 0.8;"/><path class="point" transform="translate(12.22,81.54)" d="M7.5,0A7.5,7.5 0 1,1 0,-7.5A7.5,7.5 0 0,1 7.5,0Z" style="opacity: 1; stroke-width: 0px; fill: rgb(242, 142, 43); fill-opacity: 0.8;"/><path class="point" transform="translate(8.78,333.72)" d="M7.5,0A7.5,7.5 0 1,1 0,-7.5A7.5,7.5 0 0,1 7.5,0Z" style="opacity: 1; stroke-width: 0px; fill: rgb(242, 142, 43); fill-opacity: 0.8;"/><path class="point" transform="translate(8.97,165.29)" d="M7.5,0A7.5,7.5 0 1,1 0,-7.5A7.5,7.5 0 0,1 7.5,0Z" style="opacity: 1; stroke-width: 0px; fill: rgb(242, 142, 43); fill-opacity: 0.8;"/><path class="point" transform="translate(212.28,135.19)" d="M7.5,0A7.5,7.5 0 1,1 0,-7.5A7.5,7.5 0 0,1 7.5,0Z" style="opacity: 1; stroke-width: 0px; fill: rgb(242, 142, 43); fill-opacity: 0.8;"/><path class="point" transform="translate(28.44,172.9)" d="M7.5,0A7.5,7.5 0 1,1 0,-7.5A7.5,7.5 0 0,1 7.5,0Z" style="opacity: 1; stroke-width: 0px; fill: rgb(242, 142, 43); fill-opacity: 0.8;"/><path class="point" transform="translate(181.86,216.73)" d="M7.5,0A7.5,7.5 0 1,1 0,-7.5A7.5,7.5 0 0,1 7.5,0Z" style="opacity: 1; stroke-width: 0px; fill: rgb(242, 142, 43); fill-opacity: 0.8;"/><path class="point" transform="translate(23.41,41.57)" d="M7.5,0A7.5,7.5 0 1,1 0,-7.5A7.5,7.5 0 0,1 7.5,0Z" style="opacity: 1; stroke-width: 0px; fill: rgb(242, 142, 43); fill-opacity: 0.8;"/><path class="point" transform="translate(69.1,63.82)" d="M7.5,0A7.5,7.5 0 1,1 0,-7.5A7.5,7.5 0 0,1 7.5,0Z" style="opacity: 1; stroke-width: 0px; fill: rgb(242, 142, 43); fill-opacity: 0.8;"/><path class="point" transform="translate(55.5,23.71)" d="M7.5,0A7.5,7.5 0 1,1 0,-7.5A7.5,7.5 0 0,1 7.5,0Z" style="opacity: 1; stroke-width: 0px; fill: rgb(242, 142, 43); fill-opacity: 0.8;"/><path class="point" transform="translate(512.21,117.77)" d="M7.5,0A7.5,7.5 0 1,1 0,-7.5A7.5,7.5 0 0,1 7.5,0Z" style="opacity: 1; stroke-width: 0px; fill: rgb(242, 142, 43); fill-opacity: 0.8;"/><path class="point" transform="translate(45.64,43.9)" d="M7.5,0A7.5,7.5 0 1,1 0,-7.5A7.5,7.5 0 0,1 7.5,0Z" style="opacity: 1; stroke-width: 0px; fill: rgb(242, 142, 43); fill-opacity: 0.8;"/><path class="point" transform="translate(105.03,169.25)" d="M7.5,0A7.5,7.5 0 1,1 0,-7.5A7.5,7.5 0 0,1 7.5,0Z" style="opacity: 1; stroke-width: 0px; fill: rgb(242, 142, 43); fill-opacity: 0.8;"/><path class="point" transform="translate(15.39,213.19)" d="M7.5,0A7.5,7.5 0 1,1 0,-7.5A7.5,7.5 0 0,1 7.5,0Z" style="opacity: 1; stroke-width: 0px; fill: rgb(242, 142, 43); fill-opacity: 0.8;"/><path class="point" transform="translate(18.05,55.88)" d="M7.5,0A7.5,7.5 0 1,1 0,-7.5A7.5,7.5 0 0,1 7.5,0Z" style="opacity: 1; stroke-width: 0px; fill: rgb(242, 142, 43); fill-opacity: 0.8;"/><path class="point" transform="translate(358.43,194.04)" d="M7.5,0A7.5,7.5 0 1,1 0,-7.5A7.5,7.5 0 0,1 7.5,0Z" style="opacity: 1; stroke-width: 0px; fill: rgb(242, 142, 43); fill-opacity: 0.8;"/><path class="point" transform="translate(325.53,49.68)" d="M7.5,0A7.5,7.5 0 1,1 0,-7.5A7.5,7.5 0 0,1 7.5,0Z" style="opacity: 1; stroke-width: 0px; fill: rgb(242, 142, 43); fill-opacity: 0.8;"/><path class="point" transform="translate(29.02,117.86)" d="M7.5,0A7.5,7.5 0 1,1 0,-7.5A7.5,7.5 0 0,1 7.5,0Z" style="opacity: 1; stroke-width: 0px; fill: rgb(242, 142, 43); fill-opacity: 0.8;"/><path class="point" transform="translate(89.83,251.43)" d="M7.5,0A7.5,7.5 0 1,1 0,-7.5A7.5,7.5 0 0,1 7.5,0Z" style="opacity: 1; stroke-width: 0px; fill: rgb(242, 142, 43); fill-opacity: 0.8;"/><path class="point" transform="translate(6.81,303.48)" d="M7.5,0A7.5,7.5 0 1,1 0,-7.5A7.5,7.5 0 0,1 7.5,0Z" style="opacity: 1; stroke-width: 0px; fill: rgb(242, 142, 43); fill-opacity: 0.8;"/><path class="point" transform="translate(101.1,57.92)" d="M7.5,0A7.5,7.5 0 1,1 0,-7.5A7.5,7.5 0 0,1 7.5,0Z" style="opacity: 1; stroke-width: 0px; fill: rgb(242, 142, 43); fill-opacity: 0.8;"/><path class="point" transform="translate(44.09,262.23)" d="M7.5,0A7.5,7.5 0 1,1 0,-7.5A7.5,7.5 0 0,1 7.5,0Z" style="opacity: 1; stroke-width: 0px; fill: rgb(242, 142, 43); fill-opacity: 0.8;"/><path class="point" transform="translate(39.56,91.69)" d="M7.5,0A7.5,7.5 0 1,1 0,-7.5A7.5,7.5 0 0,1 7.5,0Z" style="opacity: 1; stroke-width: 0px; fill: rgb(242, 142, 43); fill-opacity: 0.8;"/><path class="point" transform="translate(42.31,292.11)" d="M7.5,0A7.5,7.5 0 1,1 0,-7.5A7.5,7.5 0 0,1 7.5,0Z" style="opacity: 1; stroke-width: 0px; fill: rgb(242, 142, 43); fill-opacity: 0.8;"/><path class="point" transform="translate(6.54,297.55)" d="M7.5,0A7.5,7.5 0 1,1 0,-7.5A7.5,7.5 0 0,1 7.5,0Z" style="opacity: 1; stroke-width: 0px; fill: rgb(242, 142, 43); fill-opacity: 0.8;"/><path class="point" transform="translate(106.34,292.34)" d="M7.5,0A7.5,7.5 0 1,1 0,-7.5A7.5,7.5 0 0,1 7.5,0Z" style="opacity: 1; stroke-width: 0px; fill: rgb(242, 142, 43); fill-opacity: 0.8;"/><path class="point" transform="translate(65.93,198.87)" d="M7.5,0A7.5,7.5 0 1,1 0,-7.5A7.5,7.5 0 0,1 7.5,0Z" style="opacity: 1; stroke-width: 0px; fill: rgb(242, 142, 43); fill-opacity: 0.8;"/><path class="point" transform="translate(10.25,28.95)" d="M7.5,0A7.5,7.5 0 1,1 0,-7.5A7.5,7.5 0 0,1 7.5,0Z" style="opacity: 1; stroke-width: 0px; fill: rgb(242, 142, 43); fill-opacity: 0.8;"/><path class="point" transform="translate(15.65,66.51)" d="M7.5,0A7.5,7.5 0 1,1 0,-7.5A7.5,7.5 0 0,1 7.5,0Z" style="opacity: 1; stroke-width: 0px; fill: rgb(242, 142, 43); fill-opacity: 0.8;"/><path class="point" transform="translate(6.39,99.92)" d="M7.5,0A7.5,7.5 0 1,1 0,-7.5A7.5,7.5 0 0,1 7.5,0Z" style="opacity: 1; stroke-width: 0px; fill: rgb(242, 142, 43); fill-opacity: 0.8;"/><path class="point" transform="translate(21.34,182.35)" d="M7.5,0A7.5,7.5 0 1,1 0,-7.5A7.5,7.5 0 0,1 7.5,0Z" style="opacity: 1; stroke-width: 0px; fill: rgb(242, 142, 43); fill-opacity: 0.8;"/><path class="point" transform="translate(7.31,216.32)" d="M7.5,0A7.5,7.5 0 1,1 0,-7.5A7.5,7.5 0 0,1 7.5,0Z" style="opacity: 1; stroke-width: 0px; fill: rgb(242, 142, 43); fill-opacity: 0.8;"/><path class="point" transform="translate(117.94,249.64)" d="M7.5,0A7.5,7.5 0 1,1 0,-7.5A7.5,7.5 0 0,1 7.5,0Z" style="opacity: 1; stroke-width: 0px; fill: rgb(242, 142, 43); fill-opacity: 0.8;"/><path class="point" transform="translate(56.51,75.91)" d="M7.5,0A7.5,7.5 0 1,1 0,-7.5A7.5,7.5 0 0,1 7.5,0Z" style="opacity: 1; stroke-width: 0px; fill: rgb(242, 142, 43); fill-opacity: 0.8;"/><path class="point" transform="translate(7.19,26.38)" d="M7.5,0A7.5,7.5 0 1,1 0,-7.5A7.5,7.5 0 0,1 7.5,0Z" style="opacity: 1; stroke-width: 0px; fill: rgb(242, 142, 43); fill-opacity: 0.8;"/><path class="point" transform="translate(24.02,65.19)" d="M7.5,0A7.5,7.5 0 1,1 0,-7.5A7.5,7.5 0 0,1 7.5,0Z" style="opacity: 1; stroke-width: 0px; fill: rgb(242, 142, 43); fill-opacity: 0.8;"/><path class="point" transform="translate(22.76,191.26)" d="M7.5,0A7.5,7.5 0 1,1 0,-7.5A7.5,7.5 0 0,1 7.5,0Z" style="opacity: 1; stroke-width: 0px; fill: rgb(242, 142, 43); fill-opacity: 0.8;"/><path class="point" transform="translate(13.49,214.58)" d="M7.5,0A7.5,7.5 0 1,1 0,-7.5A7.5,7.5 0 0,1 7.5,0Z" style="opacity: 1; stroke-width: 0px; fill: rgb(242, 142, 43); fill-opacity: 0.8;"/><path class="point" transform="translate(204.52,114.11)" d="M7.5,0A7.5,7.5 0 1,1 0,-7.5A7.5,7.5 0 0,1 7.5,0Z" style="opacity: 1; stroke-width: 0px; fill: rgb(242, 142, 43); fill-opacity: 0.8;"/><path class="point" transform="translate(16.62,35.71)" d="M7.5,0A7.5,7.5 0 1,1 0,-7.5A7.5,7.5 0 0,1 7.5,0Z" style="opacity: 1; stroke-width: 0px; fill: rgb(242, 142, 43); fill-opacity: 0.8;"/><path class="point" transform="translate(36.89,300.73)" d="M7.5,0A7.5,7.5 0 1,1 0,-7.5A7.5,7.5 0 0,1 7.5,0Z" style="opacity: 1; stroke-width: 0px; fill: rgb(242, 142, 43); fill-opacity: 0.8;"/><path class="point" transform="translate(8.31,316.03)" d="M7.5,0A7.5,7.5 0 1,1 0,-7.5A7.5,7.5 0 0,1 7.5,0Z" style="opacity: 1; stroke-width: 0px; fill: rgb(242, 142, 43); fill-opacity: 0.8;"/><path class="point" transform="translate(65.76,71.11)" d="M7.5,0A7.5,7.5 0 1,1 0,-7.5A7.5,7.5 0 0,1 7.5,0Z" style="opacity: 1; stroke-width: 0px; fill: rgb(242, 142, 43); fill-opacity: 0.8;"/><path class="point" transform="translate(140.07,270.91)" d="M7.5,0A7.5,7.5 0 1,1 0,-7.5A7.5,7.5 0 0,1 7.5,0Z" style="opacity: 1; stroke-width: 0px; fill: rgb(242, 142, 43); fill-opacity: 0.8;"/><path class="point" transform="translate(238.57,41.8)" d="M7.5,0A7.5,7.5 0 1,1 0,-7.5A7.5,7.5 0 0,1 7.5,0Z" style="opacity: 1; stroke-width: 0px; fill: rgb(242, 142, 43); fill-opacity: 0.8;"/><path class="point" transform="translate(15.35,30.54)" d="M7.5,0A7.5,7.5 0 1,1 0,-7.5A7.5,7.5 0 0,1 7.5,0Z" style="opacity: 1; stroke-width: 0px; fill: rgb(242, 142, 43); fill-opacity: 0.8;"/><path class="point" transform="translate(17.4,135.38)" d="M7.5,0A7.5,7.5 0 1,1 0,-7.5A7.5,7.5 0 0,1 7.5,0Z" style="opacity: 1; stroke-width: 0px; fill: rgb(242, 142, 43); fill-opacity: 0.8;"/><path class="point" transform="translate(6.58,159.63)" d="M7.5,0A7.5,7.5 0 1,1 0,-7.5A7.5,7.5 0 0,1 7.5,0Z" style="opacity: 1; stroke-width: 0px; fill: rgb(242, 142, 43); fill-opacity: 0.8;"/><path class="point" transform="translate(46.72,55.5)" d="M7.5,0A7.5,7.5 0 1,1 0,-7.5A7.5,7.5 0 0,1 7.5,0Z" style="opacity: 1; stroke-width: 0px; fill: rgb(242, 142, 43); fill-opacity: 0.8;"/><path class="point" transform="translate(5.52,212.19)" d="M7.5,0A7.5,7.5 0 1,1 0,-7.5A7.5,7.5 0 0,1 7.5,0Z" style="opacity: 1; stroke-width: 0px; fill: rgb(242, 142, 43); fill-opacity: 0.8;"/><path class="point" transform="translate(78.89,178.91)" d="M7.5,0A7.5,7.5 0 1,1 0,-7.5A7.5,7.5 0 0,1 7.5,0Z" style="opacity: 1; stroke-width: 0px; fill: rgb(242, 142, 43); fill-opacity: 0.8;"/><path class="point" transform="translate(5.27,26.28)" d="M7.5,0A7.5,7.5 0 1,1 0,-7.5A7.5,7.5 0 0,1 7.5,0Z" style="opacity: 1; stroke-width: 0px; fill: rgb(242, 142, 43); fill-opacity: 0.8;"/><path class="point" transform="translate(69.58,95.23)" d="M7.5,0A7.5,7.5 0 1,1 0,-7.5A7.5,7.5 0 0,1 7.5,0Z" style="opacity: 1; stroke-width: 0px; fill: rgb(242, 142, 43); fill-opacity: 0.8;"/><path class="point" transform="translate(12.89,51.58)" d="M7.5,0A7.5,7.5 0 1,1 0,-7.5A7.5,7.5 0 0,1 7.5,0Z" style="opacity: 1; stroke-width: 0px; fill: rgb(242, 142, 43); fill-opacity: 0.8;"/><path class="point" transform="translate(11.3,24.3)" d="M7.5,0A7.5,7.5 0 1,1 0,-7.5A7.5,7.5 0 0,1 7.5,0Z" style="opacity: 1; stroke-width: 0px; fill: rgb(242, 142, 43); fill-opacity: 0.8;"/><path class="point" transform="translate(10.6,190.97)" d="M7.5,0A7.5,7.5 0 1,1 0,-7.5A7.5,7.5 0 0,1 7.5,0Z" style="opacity: 1; stroke-width: 0px; fill: rgb(242, 142, 43); fill-opacity: 0.8;"/><path class="point" transform="translate(78.18,61.61)" d="M7.5,0A7.5,7.5 0 1,1 0,-7.5A7.5,7.5 0 0,1 7.5,0Z" style="opacity: 1; stroke-width: 0px; fill: rgb(242, 142, 43); fill-opacity: 0.8;"/><path class="point" transform="translate(10.57,156.23)" d="M7.5,0A7.5,7.5 0 1,1 0,-7.5A7.5,7.5 0 0,1 7.5,0Z" style="opacity: 1; stroke-width: 0px; fill: rgb(242, 142, 43); fill-opacity: 0.8;"/><path class="point" transform="translate(82.1,40.55)" d="M7.5,0A7.5,7.5 0 1,1 0,-7.5A7.5,7.5 0 0,1 7.5,0Z" style="opacity: 1; stroke-width: 0px; fill: rgb(242, 142, 43); fill-opacity: 0.8;"/><path class="point" transform="translate(40.3,121.37)" d="M7.5,0A7.5,7.5 0 1,1 0,-7.5A7.5,7.5 0 0,1 7.5,0Z" style="opacity: 1; stroke-width: 0px; fill: rgb(242, 142, 43); fill-opacity: 0.8;"/><path class="point" transform="translate(104.27,262.05)" d="M7.5,0A7.5,7.5 0 1,1 0,-7.5A7.5,7.5 0 0,1 7.5,0Z" style="opacity: 1; stroke-width: 0px; fill: rgb(242, 142, 43); fill-opacity: 0.8;"/><path class="point" transform="translate(10.44,314.73)" d="M7.5,0A7.5,7.5 0 1,1 0,-7.5A7.5,7.5 0 0,1 7.5,0Z" style="opacity: 1; stroke-width: 0px; fill: rgb(242, 142, 43); fill-opacity: 0.8;"/><path class="point" transform="translate(38.48,297.25)" d="M7.5,0A7.5,7.5 0 1,1 0,-7.5A7.5,7.5 0 0,1 7.5,0Z" style="opacity: 1; stroke-width: 0px; fill: rgb(242, 142, 43); fill-opacity: 0.8;"/><path class="point" transform="translate(21.21,62.07)" d="M7.5,0A7.5,7.5 0 1,1 0,-7.5A7.5,7.5 0 0,1 7.5,0Z" style="opacity: 1; stroke-width: 0px; fill: rgb(242, 142, 43); fill-opacity: 0.8;"/><path class="point" transform="translate(61.97,192.85)" d="M7.5,0A7.5,7.5 0 1,1 0,-7.5A7.5,7.5 0 0,1 7.5,0Z" style="opacity: 1; stroke-width: 0px; fill: rgb(242, 142, 43); fill-opacity: 0.8;"/><path class="point" transform="translate(38.47,97.68)" d="M7.5,0A7.5,7.5 0 1,1 0,-7.5A7.5,7.5 0 0,1 7.5,0Z" style="opacity: 1; stroke-width: 0px; fill: rgb(242, 142, 43); fill-opacity: 0.8;"/><path class="point" transform="translate(6.52,192.98)" d="M7.5,0A7.5,7.5 0 1,1 0,-7.5A7.5,7.5 0 0,1 7.5,0Z" style="opacity: 1; stroke-width: 0px; fill: rgb(242, 142, 43); fill-opacity: 0.8;"/><path class="point" transform="translate(73.8,290.69)" d="M7.5,0A7.5,7.5 0 1,1 0,-7.5A7.5,7.5 0 0,1 7.5,0Z" style="opacity: 1; stroke-width: 0px; fill: rgb(242, 142, 43); fill-opacity: 0.8;"/><path class="point" transform="translate(14.85,104.85)" d="M7.5,0A7.5,7.5 0 1,1 0,-7.5A7.5,7.5 0 0,1 7.5,0Z" style="opacity: 1; stroke-width: 0px; fill: rgb(242, 142, 43); fill-opacity: 0.8;"/><path class="point" transform="translate(17.33,104.62)" d="M7.5,0A7.5,7.5 0 1,1 0,-7.5A7.5,7.5 0 0,1 7.5,0Z" style="opacity: 1; stroke-width: 0px; fill: rgb(242, 142, 43); fill-opacity: 0.8;"/></g><g class="text"/></g></g></g><g class="overplot"/><path class="xlines-above crisp" d="M92,518.5H1078" style="fill: none; stroke-width: 1px; stroke: rgb(0, 0, 0); stroke-opacity: 1;"/><path class="ylines-above crisp" d="M92.5,60V518" style="fill: none; stroke-width: 1px; stroke: rgb(0, 0, 0); stroke-opacity: 1;"/><g class="overlines-above"/><g class="xaxislayer-above"><g class="xtick"><text text-anchor="middle" x="0" y="547.8" transform="translate(94.09,0)" style="font-family: Arial; font-size: 24px; fill: rgb(42, 63, 95); fill-opacity: 1; white-space: pre; opacity: 1;">0</text></g><g class="xtick"><text text-anchor="middle" x="0" y="547.8" style="font-family: Arial; font-size: 24px; fill: rgb(42, 63, 95); fill-opacity: 1; white-space: pre; opacity: 1;" transform="translate(203.42000000000002,0)">10k</text></g><g class="xtick"><text text-anchor="middle" x="0" y="547.8" style="font-family: Arial; font-size: 24px; fill: rgb(42, 63, 95); fill-opacity: 1; white-space: pre; opacity: 1;" transform="translate(312.74,0)">20k</text></g><g class="xtick"><text text-anchor="middle" x="0" y="547.8" style="font-family: Arial; font-size: 24px; fill: rgb(42, 63, 95); fill-opacity: 1; white-space: pre; opacity: 1;" transform="translate(422.06,0)">30k</text></g><g class="xtick"><text text-anchor="middle" x="0" y="547.8" style="font-family: Arial; font-size: 24px; fill: rgb(42, 63, 95); fill-opacity: 1; white-space: pre; opacity: 1;" transform="translate(531.39,0)">40k</text></g><g class="xtick"><text text-anchor="middle" x="0" y="547.8" style="font-family: Arial; font-size: 24px; fill: rgb(42, 63, 95); fill-opacity: 1; white-space: pre; opacity: 1;" transform="translate(640.71,0)">50k</text></g><g class="xtick"><text text-anchor="middle" x="0" y="547.8" style="font-family: Arial; font-size: 24px; fill: rgb(42, 63, 95); fill-opacity: 1; white-space: pre; opacity: 1;" transform="translate(750.03,0)">60k</text></g><g class="xtick"><text text-anchor="middle" x="0" y="547.8" style="font-family: Arial; font-size: 24px; fill: rgb(42, 63, 95); fill-opacity: 1; white-space: pre; opacity: 1;" transform="translate(859.35,0)">70k</text></g><g class="xtick"><text text-anchor="middle" x="0" y="547.8" style="font-family: Arial; font-size: 24px; fill: rgb(42, 63, 95); fill-opacity: 1; white-space: pre; opacity: 1;" transform="translate(968.68,0)">80k</text></g><g class="xtick"><text text-anchor="middle" x="0" y="547.8" style="font-family: Arial; font-size: 24px; fill: rgb(42, 63, 95); fill-opacity: 1; white-space: pre; opacity: 1;" transform="translate(1078,0)">90k</text></g></g><g class="yaxislayer-above"><g class="ytick"><text text-anchor="end" x="87.2" y="8.399999999999999" transform="translate(0,513.6800000000001)" style="font-family: Arial; font-size: 24px; fill: rgb(42, 63, 95); fill-opacity: 1; white-space: pre; opacity: 1;">0</text></g><g class="ytick"><text text-anchor="end" x="87.2" y="8.399999999999999" style="font-family: Arial; font-size: 24px; fill: rgb(42, 63, 95); fill-opacity: 1; white-space: pre; opacity: 1;" transform="translate(0,427.26)">20</text></g><g class="ytick"><text text-anchor="end" x="87.2" y="8.399999999999999" style="font-family: Arial; font-size: 24px; fill: rgb(42, 63, 95); fill-opacity: 1; white-space: pre; opacity: 1;" transform="translate(0,340.85)">40</text></g><g class="ytick"><text text-anchor="end" x="87.2" y="8.399999999999999" style="font-family: Arial; font-size: 24px; fill: rgb(42, 63, 95); fill-opacity: 1; white-space: pre; opacity: 1;" transform="translate(0,254.43)">60</text></g><g class="ytick"><text text-anchor="end" x="87.2" y="8.399999999999999" style="font-family: Arial; font-size: 24px; fill: rgb(42, 63, 95); fill-opacity: 1; white-space: pre; opacity: 1;" transform="translate(0,168.01999999999998)">80</text></g><g class="ytick"><text text-anchor="end" x="87.2" y="8.399999999999999" style="font-family: Arial; font-size: 24px; fill: rgb(42, 63, 95); fill-opacity: 1; white-space: pre; opacity: 1;" transform="translate(0,81.6)">100</text></g></g><g class="overaxes-above"/></g></g><g class="polarlayer"/><g class="smithlayer"/><g class="ternarylayer"/><g class="geolayer"/><g class="funnelarealayer"/><g class="pielayer"/><g class="iciclelayer"/><g class="treemaplayer"/><g class="sunburstlayer"/><g class="glimages"/><defs id="topdefs-fed5e7"><g class="clips"/><clipPath id="legendfed5e7"><rect width="90" height="117" x="0" y="0"/></clipPath></defs><g class="layer-above"><g class="imagelayer"/><g class="shapelayer"/></g><g class="infolayer"><g class="legend" pointer-events="all" transform="translate(1097.7,60)"><rect class="bg" shape-rendering="crispEdges" style="stroke: rgb(68, 68, 68); stroke-opacity: 1; fill: rgb(255, 250, 229); fill-opacity: 1; stroke-width: 0px;" width="90" height="117" x="0" y="0"/><g class="scrollbox" transform="" clip-path="url(#legendfed5e7)"><text class="legendtitletext" text-anchor="start" x="2" y="37.7" style="font-family: Arial; font-size: 29px; fill: rgb(42, 63, 95); fill-opacity: 1; white-space: pre;">cluster</text><g class="groups" transform=""><g class="traces" transform="translate(0,59.800000000000004)" style="opacity: 1;"><text class="legendtext" text-anchor="start" x="40" y="9.360000000000001" style="font-family: Arial; font-size: 24px; fill: rgb(42, 63, 95); fill-opacity: 1; white-space: pre;">1</text><g class="layers" style="opacity: 1;"><g class="legendfill"/><g class="legendlines"/><g class="legendsymbols"><g class="legendpoints"><path class="scatterpts" transform="translate(20,0)" d="M7.5,0A7.5,7.5 0 1,1 0,-7.5A7.5,7.5 0 0,1 7.5,0Z" style="opacity: 1; stroke-width: 0px; fill: rgb(89, 161, 79); fill-opacity: 0.8;"/></g></g></g><rect class="legendtoggle" x="0" y="-17.1" width="53.359375" height="34.2" style="fill: rgb(0, 0, 0); fill-opacity: 0;"/></g></g><g class="groups" transform=""><g class="traces" transform="translate(0,94)" style="opacity: 1;"><text class="legendtext" text-anchor="start" x="40" y="9.360000000000001" style="font-family: Arial; font-size: 24px; fill: rgb(42, 63, 95); fill-opacity: 1; white-space: pre;">0</text><g class="layers" style="opacity: 1;"><g class="legendfill"/><g class="legendlines"/><g class="legendsymbols"><g class="legendpoints"><path class="scatterpts" transform="translate(20,0)" d="M7.5,0A7.5,7.5 0 1,1 0,-7.5A7.5,7.5 0 0,1 7.5,0Z" style="opacity: 1; stroke-width: 0px; fill: rgb(242, 142, 43); fill-opacity: 0.8;"/></g></g></g><rect class="legendtoggle" x="0" y="-17.1" width="53.359375" height="34.2" style="fill: rgb(0, 0, 0); fill-opacity: 0;"/></g></g></g><rect class="scrollbar" rx="20" ry="3" width="0" height="0" style="fill: rgb(128, 139, 164); fill-opacity: 1;" x="0" y="0"/></g><g class="g-gtitle"/><g class="g-xtitle"><text class="xtitle" x="585.5" y="587.6125" text-anchor="middle" style="font-family: Arial; font-size: 29px; fill: rgb(42, 63, 95); opacity: 1; font-weight: normal; white-space: pre;">GDP per capita</text></g><g class="g-ytitle" transform="translate(13.6435546875,0)"><text class="ytitle" transform="rotate(-90,12.356250000000003,289)" x="12.356250000000003" y="289" text-anchor="middle" style="font-family: Arial; font-size: 29px; fill: rgb(42, 63, 95); opacity: 1; font-weight: normal; white-space: pre;">Exposure (%)</text></g></g></svg>